<?xml version="1.0" encoding="UTF-8" standalone="no"?>
<!-- Created with Inkscape (http://www.inkscape.org/) -->

<svg
   xmlns:dc="http://purl.org/dc/elements/1.1/"
   xmlns:cc="http://creativecommons.org/ns#"
   xmlns:rdf="http://www.w3.org/1999/02/22-rdf-syntax-ns#"
   xmlns:svg="http://www.w3.org/2000/svg"
   xmlns="http://www.w3.org/2000/svg"
   xmlns:sodipodi="http://sodipodi.sourceforge.net/DTD/sodipodi-0.dtd"
   xmlns:inkscape="http://www.inkscape.org/namespaces/inkscape"
   width="70"
   height="50"
   viewBox="0 0 70.000001 50.000001"
   id="svg4248"
   version="1.1"
   inkscape:version="0.91 r13725"
   sodipodi:docname="reportes.svg">
  <defs
     id="defs4250" />
  <sodipodi:namedview
     id="base"
     pagecolor="#ffffff"
     bordercolor="#666666"
     borderopacity="1.0"
     inkscape:pageopacity="0.0"
     inkscape:pageshadow="2"
     inkscape:zoom="9.2287617"
     inkscape:cx="36.044579"
     inkscape:cy="27.901221"
     inkscape:document-units="px"
     inkscape:current-layer="layer1"
     showgrid="false"
     units="px"
     inkscape:window-width="1215"
     inkscape:window-height="776"
     inkscape:window-x="65"
     inkscape:window-y="24"
     inkscape:window-maximized="1" />
  <metadata
     id="metadata4253">
    <rdf:RDF>
      <cc:Work
         rdf:about="">
        <dc:format>image/svg+xml</dc:format>
        <dc:type
           rdf:resource="http://purl.org/dc/dcmitype/StillImage" />
        <dc:title></dc:title>
      </cc:Work>
    </rdf:RDF>
  </metadata>
  <g
     inkscape:label="Capa 1"
     inkscape:groupmode="layer"
     id="layer1"
     transform="translate(0,-1002.3621)">
    <path
       style="fill:none;fill-opacity:1;fill-rule:evenodd;stroke:#000000;stroke-width:0.34613881px;stroke-linecap:butt;stroke-linejoin:miter;stroke-opacity:1"
       d="m 16.641797,1011.3019 c 0,0 -0.608135,2.3281 0.15203,3.4109 l 37.552108,0.1624 c 0,0 0.532112,-0.9204 0.15203,-3.5191 2.128461,0.054 2.128461,0.054 2.128461,0.054 0,0 0.228048,38.1147 -0.07601,38.1147 -0.304065,0 -42.037073,-0.1083 -42.037073,-0.1083 l -0.07601,-38.1689 z"
       id="path3346"
       inkscape:connector-curvature="0"
       sodipodi:nodetypes="cccccsccc" />
    <g
       id="g4465"
       style="fill:none;fill-opacity:1"
       transform="matrix(1.1721606,0,0,0.99946856,-3.8178915,0.65435486)">
      <path
         sodipodi:nodetypes="ccscssscsccccc"
         inkscape:connector-curvature="0"
         id="path3348"
         d="m 19.205669,1008.5848 -4.734161,0 c 0,0 -2.853467,0.4875 -2.853467,2.1126 0,1.6251 -0.06485,39.0018 -0.06485,39.0018 0,0 0.194557,2.2751 2.529209,2.3834 2.334656,0.1083 37.74359,0.1083 38.651512,0 0.907922,-0.1083 2.594062,-0.8125 2.65891,-2.2751 0.06485,-1.4626 0.06485,-39.0018 0.06485,-39.0018 0,0 -0.259406,-2.2751 -2.529209,-2.3292 -2.269804,-0.054 -4.863865,0 -4.863865,0 0,0 -1.23218,-2.3835 -7.522779,-1.9501 -2.334652,-4.2794 -7.457922,-3.9002 -7.457922,-3.9002 0,0 -5.188123,0.2708 -6.355451,4.1169 -5.317824,-0.8126 -7.522778,1.8417 -7.522778,1.8417 z"
         style="fill:none;fill-opacity:1;fill-rule:evenodd;stroke:#000000;stroke-width:0.31979537px;stroke-linecap:butt;stroke-linejoin:miter;stroke-opacity:1" />
    </g>
    <rect
       style="fill:#000900;fill-opacity:1;fill-rule:evenodd;stroke:#000000;stroke-width:0.1730694;stroke-linecap:butt;stroke-linejoin:miter;stroke-miterlimit:4;stroke-dasharray:none;stroke-opacity:1"
       id="rect3350"
       width="4.0288701"
       height="2.8694379"
       x="20.518633"
       y="1019.098" />
    <rect
       style="fill:none;stroke-width:0.5;stroke-miterlimit:4;stroke-dasharray:none"
       id="rect4154"
       width="21.284594"
       height="2.8152974"
       x="29.260521"
       y="1019.2064" />
    <rect
       style="fill:#41e100;fill-opacity:1;stroke:#000000;stroke-width:0.1730694;stroke-miterlimit:4;stroke-dasharray:none;stroke-opacity:1"
       id="rect4156"
       width="22.044758"
       height="3.1942797"
       x="28.576378"
       y="1018.9898" />
    <rect
       style="fill:#000900;fill-opacity:1;fill-rule:evenodd;stroke:#000000;stroke-width:0.1730694;stroke-linecap:butt;stroke-linejoin:miter;stroke-miterlimit:4;stroke-dasharray:none;stroke-opacity:1"
       id="rect3350-3"
       width="4.0288701"
       height="2.8694379"
       x="20.594648"
       y="1026.38" />
    <rect
       style="fill:#41e100;fill-opacity:1;stroke:#000000;stroke-width:0.16411108;stroke-miterlimit:4;stroke-dasharray:none;stroke-opacity:1"
       id="rect4156-6"
       width="19.774881"
       height="3.2018399"
       x="28.647085"
       y="1026.2679" />
    <rect
       style="fill:#000900;fill-opacity:1;fill-rule:evenodd;stroke:#000000;stroke-width:0.1730694;stroke-linecap:butt;stroke-linejoin:miter;stroke-miterlimit:4;stroke-dasharray:none;stroke-opacity:1"
       id="rect3350-7"
       width="4.0288701"
       height="2.8694379"
       x="20.366602"
       y="1033.5266" />
    <rect
       style="fill:#41e100;fill-opacity:1;stroke:#000000;stroke-width:0.15655236;stroke-miterlimit:4;stroke-dasharray:none;stroke-opacity:1"
       id="rect4156-5"
       width="17.959444"
       height="3.2082191"
       x="28.41456"
       y="1033.4113" />
    <rect
       style="fill:#000900;fill-opacity:1;fill-rule:evenodd;stroke:#000000;stroke-width:0.1730694;stroke-linecap:butt;stroke-linejoin:miter;stroke-miterlimit:4;stroke-dasharray:none;stroke-opacity:1"
       id="rect3350-35"
       width="4.0288701"
       height="2.8694379"
       x="20.594648"
       y="1040.5648" />
    <rect
       style="fill:#41e100;fill-opacity:1;stroke:#000000;stroke-width:0.11173901;stroke-miterlimit:4;stroke-dasharray:none;stroke-opacity:1"
       id="rect4156-62"
       width="9.0426083"
       height="3.2460382"
       x="28.616056"
       y="1040.4307" />
    <text
       xml:space="preserve"
       style="font-style:normal;font-weight:normal;font-size:13.84555244px;line-height:125%;font-family:sans-serif;letter-spacing:0px;word-spacing:0px;fill:#000000;fill-opacity:1;stroke:none;stroke-width:1px;stroke-linecap:butt;stroke-linejoin:miter;stroke-opacity:1"
       x="33.739372"
       y="1243.166"
       id="text4194"
       sodipodi:linespacing="125%"
       transform="scale(1.1849314,0.84393071)"><tspan
         sodipodi:role="line"
         id="tspan4196"
         x="33.739372"
         y="1243.166"
         style="font-size:8.65347004px">HT</tspan></text>
    <ellipse
       style="fill:none;stroke:#000000;stroke-width:0.1730694;stroke-miterlimit:4;stroke-dasharray:none;stroke-opacity:1"
       id="path4198"
       cx="35.645901"
       cy="1008.7573"
       rx="2.1284595"
       ry="1.5159293" />
    <path
       style="fill:none;fill-rule:evenodd;stroke:#000000;stroke-width:0.34613881px;stroke-linecap:butt;stroke-linejoin:miter;stroke-opacity:1"
       d="m 20.898715,1011.5727 29.038267,-0.054 c 0,0 -1.672361,-1.8408 -3.876839,-1.8408 -2.204474,0 -6.309361,0.054 -6.309361,0.054 l 0,-1.6242 c 0,0 -3.653528,-4.8832 -8.361805,0 l -0.07601,1.5701 -7.297575,0.054 c 0,0 -1.748378,0.2166 -3.116674,1.8409 z"
       id="path4200"
       inkscape:connector-curvature="0"
       sodipodi:nodetypes="ccscccccc" />
  </g>
</svg>
